<?xml version="1.0" encoding="UTF-8"?>
<svg width="111px" height="20px" viewBox="0 0 111 20" version="1.1" xmlns="http://www.w3.org/2000/svg" xmlns:xlink="http://www.w3.org/1999/xlink">
    <title>EladmeGo</title>
    <defs>
        <polygon id="path-1" points="11.312 18.016 11.312 15.304 2.976 15.304 2.976 9.88 11.096 9.88 11.096 7.216 2.976 7.216 2.976 2.712 11.312 2.712 11.312 -7.53450635e-14 1.17665877e-14 -7.53450635e-14 -1.41360257e-14 18.016"></polygon>
        <polygon id="path-2" points="17.384 18.016 17.384 0.04 14.672 0.04 14.672 18.016"></polygon>
        <path d="M31.304,18.016 L31.304,17.2 L31.304,7.504 L28.592,7.504 L28.592,8.848 C27.896,7.864 26.624,7.216 25.16,7.216 C22.088,7.216 19.952,9.64 19.952,12.88 C19.952,16 22.016,18.304 25.016,18.304 C26.576,18.304 27.8,17.68 28.592,16.72 L28.592,18.016 L31.304,18.016 Z M28.712,12.856 C28.712,14.632 27.56,16.072 25.76,16.072 C24.008,16.072 22.76,14.584 22.76,12.784 C22.76,10.96 24.056,9.616 25.688,9.616 C27.464,9.616 28.712,10.984 28.712,12.856 Z" id="path-3"></path>
        <path d="M45.224,18.016 L45.224,0.064 L42.512,0.064 L42.512,8.728 C41.72,7.816 40.496,7.288 39.104,7.288 C36.032,7.288 33.872,9.76 33.872,12.808 C33.872,15.856 35.888,18.256 38.888,18.256 C40.544,18.256 41.72,17.56 42.512,16.6 L42.512,18.016 L45.224,18.016 Z M42.608,12.712 C42.608,14.512 41.408,15.952 39.632,15.952 C38.096,15.952 36.728,14.68 36.728,12.784 C36.728,11.032 37.976,9.592 39.68,9.592 C41.288,9.592 42.608,10.792 42.608,12.712 Z" id="path-4"></path>
        <path d="M64.568,18.016 L64.568,11.392 C64.568,8.44 63.032,7.288 60.944,7.288 C59.288,7.288 58.136,8.128 57.416,9.088 C56.72,7.84 55.712,7.264 54.248,7.264 C52.736,7.264 51.68,8.008 51.056,8.992 L51.056,7.504 L48.392,7.504 L48.392,18.016 L51.104,18.016 L51.104,12.256 C51.104,10.408 52.28,9.616 53.336,9.616 C54.68,9.616 55.112,10.6 55.112,11.968 L55.112,18.016 L57.848,18.016 L57.848,12.232 C57.848,10.384 59,9.616 60.056,9.616 C61.424,9.616 61.832,10.6 61.832,11.968 L61.832,18.016 L64.568,18.016 Z" id="path-5"></path>
        <path d="M77.6,12.592 C77.6,9.232 75.44,7.192 72.392,7.192 C69.368,7.192 67.064,9.472 67.064,12.808 C67.064,16.336 69.464,18.328 72.416,18.328 C74.624,18.328 76.16,17.536 77.384,15.976 L75.584,14.704 C74.864,15.64 73.88,16.192 72.68,16.192 C71.048,16.192 69.848,15.016 69.776,13.48 L77.576,13.48 C77.576,13.168 77.6,12.88 77.6,12.592 Z M74.816,11.656 L69.8,11.656 C69.92,10.36 70.88,9.232 72.344,9.232 C73.88,9.232 74.816,10.384 74.816,11.656 Z" id="path-6"></path>
        <path d="M96.68,9.76 L96.68,9.064 L88.88,9.064 L88.88,11.68 L93.488,11.68 C93.08,13.96 91.16,15.688 88.352,15.688 C84.824,15.688 82.616,12.832 82.616,9.4 C82.616,6.136 84.8,3.328 88.352,3.328 C90.44,3.328 92.096,4.168 93.344,5.872 L95.696,4.24 C93.992,1.864 91.424,0.616 88.424,0.616 C83.288,0.616 79.592,4.576 79.592,9.472 C79.592,14.464 83.072,18.376 88.208,18.376 C93.584,18.376 96.68,14.512 96.68,9.76 Z" id="path-7"></path>
        <path d="M109.88,12.76 C109.88,9.568 107.432,7.216 104.144,7.216 C100.832,7.216 98.384,9.712 98.384,12.784 C98.384,16 100.832,18.328 104.024,18.328 C107.552,18.328 109.88,15.712 109.88,12.76 Z M107.096,12.784 C107.096,14.464 105.848,15.904 104.144,15.904 C102.512,15.904 101.144,14.536 101.144,12.76 C101.144,11.056 102.368,9.64 104.096,9.64 C105.776,9.64 107.096,11.008 107.096,12.784 Z" id="path-8"></path>
    </defs>
    <g id="页面-1" stroke="none" stroke-width="1" fill="none" fill-rule="evenodd">
        <g id="EladmeGo" transform="translate(0.968000, 0.984000)" fill-rule="nonzero">
            <g id="路径">
                <use fill="#FFFFFF" xlink:href="#path-1"></use>
                <use fill="#EF6F29" xlink:href="#path-1"></use>
            </g>
            <g id="路径">
                <use fill="#FFFFFF" xlink:href="#path-2"></use>
                <use fill="#606060" xlink:href="#path-2"></use>
            </g>
            <g id="形状">
                <use fill="#FFFFFF" xlink:href="#path-3"></use>
                <use fill="#606060" xlink:href="#path-3"></use>
            </g>
            <g id="形状">
                <use fill="#FFFFFF" xlink:href="#path-4"></use>
                <use fill="#606060" xlink:href="#path-4"></use>
            </g>
            <g id="路径">
                <use fill="#FFFFFF" xlink:href="#path-5"></use>
                <use fill="#606060" xlink:href="#path-5"></use>
            </g>
            <g id="形状">
                <use fill="#FFFFFF" xlink:href="#path-6"></use>
                <use fill="#606060" xlink:href="#path-6"></use>
            </g>
            <g id="路径">
                <use fill="#FFFFFF" xlink:href="#path-7"></use>
                <use fill="#606060" xlink:href="#path-7"></use>
            </g>
            <g id="形状">
                <use fill="#FFFFFF" xlink:href="#path-8"></use>
                <use fill="#606060" xlink:href="#path-8"></use>
            </g>
        </g>
    </g>
</svg>