<?xml version="1.0" encoding="UTF-8"?>
<svg width="88px" height="16px" viewBox="0 0 88 16" version="1.1" xmlns="http://www.w3.org/2000/svg" xmlns:xlink="http://www.w3.org/1999/xlink">
    <title>EladmeGo 19 Outlines</title>
    <defs>
        <polygon id="path-1" points="9.372 14.231 9.372 12.084 2.356 12.084 2.356 7.79 9.201 7.79 9.201 5.681 2.356 5.681 2.375 2.147 9.372 2.147 9.372 -5.05586684e-14 0.019 -5.05586684e-14 5.0594362e-14 14.231"></polygon>
        <polygon id="path-2" points="14.179 14.231 14.179 0 12.032 0 12.032 14.231"></polygon>
        <path d="M25.199,14.231 L25.199,13.585 L25.199,5.909 L23.052,5.909 L23.052,6.973 C22.501,6.194 21.494,5.681 20.335,5.681 C17.903,5.681 16.212,7.6 16.212,10.165 C16.212,12.635 17.846,14.459 20.221,14.459 C21.456,14.459 22.425,13.965 23.052,13.205 L23.052,14.231 L25.199,14.231 Z M23.147,10.146 C23.147,11.552 22.235,12.692 20.81,12.692 C19.423,12.692 18.435,11.514 18.435,10.089 C18.435,8.645 19.461,7.581 20.753,7.581 C22.159,7.581 23.147,8.664 23.147,10.146 Z" id="path-3"></path>
        <path d="M36.219,14.231 L36.219,0.019 L34.072,0.019 L34.072,6.878 C33.445,6.156 32.476,5.738 31.374,5.738 C28.942,5.738 27.232,7.695 27.232,10.108 C27.232,12.521 28.828,14.421 31.203,14.421 C32.514,14.421 33.445,13.87 34.072,13.11 L34.072,14.231 L36.219,14.231 Z M34.148,10.032 C34.148,11.457 33.198,12.597 31.792,12.597 C30.576,12.597 29.493,11.59 29.493,10.089 C29.493,8.702 30.481,7.562 31.83,7.562 C33.103,7.562 34.148,8.512 34.148,10.032 Z" id="path-4"></path>
        <path d="M51.533,14.231 L51.533,8.987 C51.533,6.65 50.317,5.738 48.664,5.738 C47.353,5.738 46.441,6.403 45.871,7.163 C45.32,6.175 44.522,5.719 43.363,5.719 C42.166,5.719 41.33,6.308 40.836,7.087 L40.836,5.909 L38.727,5.909 L38.727,14.231 L40.874,14.231 L40.874,9.671 C40.874,8.208 41.805,7.581 42.641,7.581 C43.705,7.581 44.047,8.36 44.047,9.443 L44.047,14.231 L46.213,14.231 L46.213,9.652 C46.213,8.189 47.125,7.581 47.961,7.581 C49.044,7.581 49.367,8.36 49.367,9.443 L49.367,14.231 L51.533,14.231 Z" id="path-5"></path>
        <path d="M61.85,9.937 C61.85,7.277 60.14,5.662 57.727,5.662 C55.333,5.662 53.509,7.467 53.509,10.108 C53.509,12.901 55.409,14.478 57.746,14.478 C59.494,14.478 60.71,13.851 61.679,12.616 L60.254,11.609 C59.684,12.35 58.905,12.787 57.955,12.787 C56.663,12.787 55.713,11.856 55.656,10.64 L61.831,10.64 C61.831,10.393 61.85,10.165 61.85,9.937 Z M59.646,9.196 L55.675,9.196 C55.77,8.17 56.53,7.277 57.689,7.277 C58.905,7.277 59.646,8.189 59.646,9.196 Z" id="path-6"></path>
        <path d="M76.955,7.695 L76.955,7.144 L70.78,7.144 L70.78,9.215 L74.428,9.215 C74.105,11.02 72.585,12.388 70.362,12.388 C67.569,12.388 65.821,10.127 65.821,7.41 C65.821,4.826 67.55,2.603 70.362,2.603 C72.015,2.603 73.326,3.268 74.314,4.617 L76.176,3.325 C74.827,1.444 72.794,0.456 70.419,0.456 C66.353,0.456 63.427,3.591 63.427,7.467 C63.427,11.419 66.182,14.516 70.248,14.516 C74.504,14.516 76.955,11.457 76.955,7.695 Z" id="path-7"></path>
        <path d="M87.405,10.07 C87.405,7.543 85.467,5.681 82.864,5.681 C80.242,5.681 78.304,7.657 78.304,10.089 C78.304,12.635 80.242,14.478 82.769,14.478 C85.562,14.478 87.405,12.407 87.405,10.07 Z M85.201,10.089 C85.201,11.419 84.213,12.559 82.864,12.559 C81.572,12.559 80.489,11.476 80.489,10.07 C80.489,8.721 81.458,7.6 82.826,7.6 C84.156,7.6 85.201,8.683 85.201,10.089 Z" id="path-8"></path>
    </defs>
    <g id="页面-1" stroke="none" stroke-width="1" fill="none" fill-rule="evenodd">
        <g id="EladmeGo-19-Outlines" transform="translate(0.558000, 0.769000)" fill-rule="nonzero">
            <g id="路径">
                <use fill="#FFFFFF" xlink:href="#path-1"></use>
                <use fill="#EF6F29" xlink:href="#path-1"></use>
            </g>
            <g id="路径">
                <use fill="#FFFFFF" xlink:href="#path-2"></use>
                <use fill="#606060" xlink:href="#path-2"></use>
            </g>
            <g id="形状">
                <use fill="#FFFFFF" xlink:href="#path-3"></use>
                <use fill="#606060" xlink:href="#path-3"></use>
            </g>
            <g id="形状">
                <use fill="#FFFFFF" xlink:href="#path-4"></use>
                <use fill="#606060" xlink:href="#path-4"></use>
            </g>
            <g id="路径">
                <use fill="#FFFFFF" xlink:href="#path-5"></use>
                <use fill="#606060" xlink:href="#path-5"></use>
            </g>
            <g id="形状">
                <use fill="#FFFFFF" xlink:href="#path-6"></use>
                <use fill="#606060" xlink:href="#path-6"></use>
            </g>
            <g id="路径">
                <use fill="#FFFFFF" xlink:href="#path-7"></use>
                <use fill="#606060" xlink:href="#path-7"></use>
            </g>
            <g id="形状">
                <use fill="#FFFFFF" xlink:href="#path-8"></use>
                <use fill="#606060" xlink:href="#path-8"></use>
            </g>
        </g>
    </g>
</svg>